<svg width="20" height="20" viewBox="0 0 20 20" fill="none" xmlns="http://www.w3.org/2000/svg">
<path d="M16 2.66666H4.00002C3.26335 2.66666 2.66669 3.26332 2.66669 3.99999V16C2.66669 16.7367 3.26335 17.3333 4.00002 17.3333H16C16.7367 17.3333 17.3334 16.7367 17.3334 16V3.99999C17.3334 3.26332 16.7367 2.66666 16 2.66666ZM14 10.6667H10.6667V14C10.6667 14.3687 10.368 14.6667 10 14.6667C9.63202 14.6667 9.33335 14.3687 9.33335 14V10.6667H6.00002C5.63202 10.6667 5.33335 10.3687 5.33335 9.99999C5.33335 9.63132 5.63202 9.33332 6.00002 9.33332H9.33335V5.99999C9.33335 5.63132 9.63202 5.33332 10 5.33332C10.368 5.33332 10.6667 5.63132 10.6667 5.99999V9.33332H14C14.368 9.33332 14.6667 9.63132 14.6667 9.99999C14.6667 10.3687 14.368 10.6667 14 10.6667Z" fill="#454545"/>
</svg>
