<svg width="20" height="20" viewBox="0 0 20 20" fill="none" xmlns="http://www.w3.org/2000/svg">
<path d="M9.98959 5.99999C9.81641 6.00275 9.6511 6.0728 9.52865 6.1953L2.86198 12.862C2.798 12.9234 2.74692 12.997 2.71173 13.0784C2.67654 13.1598 2.65795 13.2474 2.65705 13.3361C2.65615 13.4248 2.67295 13.5128 2.70648 13.5949C2.74 13.677 2.78958 13.7516 2.85229 13.8144C2.91501 13.8771 2.98962 13.9267 3.07174 13.9602C3.15385 13.9937 3.24184 14.0105 3.33053 14.0096C3.41922 14.0087 3.50685 13.9901 3.58826 13.9549C3.66968 13.9197 3.74326 13.8687 3.80469 13.8047L10 7.60936L16.1953 13.8047C16.2567 13.8687 16.3303 13.9197 16.4117 13.9549C16.4932 13.9901 16.5808 14.0087 16.6695 14.0096C16.7582 14.0105 16.8462 13.9937 16.9283 13.9602C17.0104 13.9267 17.085 13.8771 17.1477 13.8144C17.2104 13.7516 17.26 13.677 17.2935 13.5949C17.3271 13.5128 17.3439 13.4248 17.343 13.3361C17.3421 13.2474 17.3235 13.1598 17.2883 13.0784C17.2531 12.997 17.202 12.9234 17.138 12.862L10.4714 6.1953C10.4082 6.13214 10.3331 6.0823 10.2503 6.04875C10.1675 6.0152 10.0789 5.99862 9.98959 5.99999Z" fill="#2781B8"/>
</svg>
