<svg width="20" height="20" viewBox="0 0 20 20" fill="none" xmlns="http://www.w3.org/2000/svg">
<path d="M16.6602 5.99091C16.4843 5.99507 16.3172 6.06854 16.1953 6.19534L10 12.3906L3.8047 6.19534C3.74257 6.13147 3.66828 6.08071 3.5862 6.04604C3.50413 6.01138 3.41593 5.99352 3.32684 5.99351C3.19421 5.99355 3.06462 6.03313 2.95461 6.10721C2.8446 6.18128 2.75919 6.28648 2.70928 6.40936C2.65938 6.53223 2.64725 6.6672 2.67445 6.797C2.70166 6.9268 2.76695 7.04555 2.86199 7.13804L9.52866 13.8047C9.65369 13.9297 9.82323 13.9999 10 13.9999C10.1768 13.9999 10.3463 13.9297 10.4714 13.8047L17.138 7.13804C17.2349 7.04494 17.3013 6.92477 17.3287 6.79327C17.356 6.66176 17.343 6.52506 17.2914 6.40107C17.2397 6.27708 17.1518 6.17158 17.0392 6.09839C16.9266 6.0252 16.7945 5.98774 16.6602 5.99091Z" fill="#2781B8"/>
</svg>
