<svg width="20" height="20" viewBox="0 0 20 20" fill="none" xmlns="http://www.w3.org/2000/svg">
<path d="M4.66669 2.66666C4.49611 2.66666 4.32534 2.73164 4.19534 2.86197L2.862 4.19531C2.60134 4.45597 2.60134 4.87802 2.862 5.13802L7.72398 9.99999L2.862 14.862C2.60134 15.1226 2.60134 15.5447 2.862 15.8047L4.19534 17.138C4.456 17.3987 4.87805 17.3987 5.13805 17.138L10 12.276L14.862 17.138C15.122 17.3987 15.5447 17.3987 15.8047 17.138L17.138 15.8047C17.3987 15.544 17.3987 15.122 17.138 14.862L12.2761 9.99999L17.138 5.13802C17.3987 4.87802 17.3987 4.45531 17.138 4.19531L15.8047 2.86197C15.544 2.60131 15.122 2.60131 14.862 2.86197L10 7.72395L5.13805 2.86197C5.00771 2.73164 4.83727 2.66666 4.66669 2.66666Z" fill="black"/>
</svg>
