<svg width="30" height="31" viewBox="0 0 30 31" fill="none" xmlns="http://www.w3.org/2000/svg">
<path d="M7 3.35474C6.73479 3.35476 6.48045 3.46013 6.29292 3.64766C6.10539 3.83519 6.00003 4.08953 6 4.35474V21.3547H4C3.73479 21.3548 3.48045 21.4601 3.29292 21.6477C3.10539 21.8352 3.00003 22.0895 3 22.3547C3 25.1043 5.25048 27.3547 8 27.3547H21C21.0333 27.3544 21.0665 27.3525 21.0996 27.3489C23.8032 27.2948 26 25.0707 26 22.3547V4.35474C26 4.08953 25.8946 3.83519 25.7071 3.64766C25.5195 3.46013 25.2652 3.35476 25 3.35474H7ZM8 5.35474H24V22.3547C24 24.0232 22.6685 25.3547 21 25.3547C19.3315 25.3547 18 24.0232 18 22.3547C18 22.0895 17.8946 21.8352 17.7071 21.6477C17.5195 21.4601 17.2652 21.3548 17 21.3547H8V5.35474ZM11 8.35474V10.3547H13V8.35474H11ZM15 8.35474V10.3547H21V8.35474H15ZM11 12.3547V14.3547H13V12.3547H11ZM15 12.3547V14.3547H21V12.3547H15ZM11 16.3547V18.3547H13V16.3547H11ZM15 16.3547V18.3547H21V16.3547H15Z" fill="#2781B8"/>
</svg>
