<svg width="26" height="26" viewBox="0 0 26 26" fill="none" xmlns="http://www.w3.org/2000/svg">
<path d="M3.46666 3.46667C3.35181 3.46505 3.23779 3.48626 3.13122 3.52909C3.02465 3.57191 2.92765 3.63549 2.84586 3.71613C2.76407 3.79677 2.69913 3.89286 2.6548 3.99882C2.61047 4.10477 2.58765 4.21848 2.58765 4.33334C2.58765 4.44819 2.61047 4.5619 2.6548 4.66786C2.69913 4.77381 2.76407 4.8699 2.84586 4.95054C2.92765 5.03118 3.02465 5.09476 3.13122 5.13759C3.23779 5.18041 3.35181 5.20163 3.46666 5.2H3.92877L10.4 12.8832V21.9104L15.6 20.6104V12.8832L22.0712 5.2H22.5333C22.6482 5.20163 22.7622 5.18041 22.8688 5.13759C22.9753 5.09476 23.0723 5.03118 23.1541 4.95054C23.2359 4.8699 23.3008 4.77381 23.3452 4.66786C23.3895 4.5619 23.4123 4.44819 23.4123 4.33334C23.4123 4.21848 23.3895 4.10477 23.3452 3.99882C23.3008 3.89286 23.2359 3.79677 23.1541 3.71613C23.0723 3.63549 22.9753 3.57191 22.8688 3.52909C22.7622 3.48626 22.6482 3.46505 22.5333 3.46667H3.46666ZM6.197 5.2H19.803L13.8667 12.2501V19.2563L12.1333 19.6896V12.2501L6.197 5.2Z" fill="#2781B8"/>
</svg>
