<svg width="15" height="15" viewBox="0 0 15 15" fill="none" xmlns="http://www.w3.org/2000/svg">
<path d="M7.99023 1.99509C7.86033 1.99896 7.73704 2.05325 7.64648 2.14646L2.64648 7.14646C2.55275 7.24023 2.50009 7.36739 2.50009 7.49997C2.50009 7.63256 2.55275 7.75972 2.64648 7.85349L7.64648 12.8535C7.69255 12.9015 7.74774 12.9398 7.8088 12.9662C7.86987 12.9926 7.93558 13.0065 8.0021 13.0072C8.06862 13.0079 8.13461 12.9953 8.1962 12.9701C8.25779 12.945 8.31374 12.9078 8.36078 12.8608C8.40782 12.8137 8.445 12.7578 8.47015 12.6962C8.49529 12.6346 8.50789 12.5686 8.50722 12.5021C8.50654 12.4356 8.4926 12.3698 8.4662 12.3088C8.43981 12.2477 8.4015 12.1925 8.35351 12.1465L3.70703 7.49997L8.35351 2.85349C8.42576 2.78326 8.47511 2.69284 8.49509 2.59408C8.51507 2.49532 8.50475 2.39283 8.46548 2.30003C8.42621 2.20724 8.35982 2.12847 8.27502 2.07406C8.19021 2.01965 8.09095 1.99212 7.99023 1.99509ZM11.4902 1.99509C11.3603 1.99896 11.237 2.05325 11.1465 2.14646L6.14648 7.14646C6.05275 7.24023 6.00009 7.36739 6.00009 7.49997C6.00009 7.63256 6.05275 7.75972 6.14648 7.85349L11.1465 12.8535C11.1926 12.9015 11.2477 12.9398 11.3088 12.9662C11.3699 12.9926 11.4356 13.0065 11.5021 13.0072C11.5686 13.0079 11.6346 12.9953 11.6962 12.9701C11.7578 12.945 11.8137 12.9078 11.8608 12.8608C11.9078 12.8137 11.945 12.7578 11.9701 12.6962C11.9953 12.6346 12.0079 12.5686 12.0072 12.5021C12.0065 12.4356 11.9926 12.3698 11.9662 12.3088C11.9398 12.2477 11.9015 12.1925 11.8535 12.1465L7.20703 7.49997L11.8535 2.85349C11.9258 2.78326 11.9751 2.69284 11.9951 2.59408C12.0151 2.49532 12.0047 2.39283 11.9655 2.30003C11.9262 2.20724 11.8598 2.12847 11.775 2.07406C11.6902 2.01965 11.5909 1.99212 11.4902 1.99509Z" fill="black"/>
</svg>
