<svg width="30" height="30" viewBox="0 0 30 30" fill="none" xmlns="http://www.w3.org/2000/svg">
<g clip-path="url(#clip0_675_2259)">
<path d="M15.0003 19.8986L10.1017 15L15.0003 10.1014V0L1.01031 13.99C0.742492 14.2579 0.592041 14.6212 0.592041 15C0.592041 15.3788 0.742492 15.7421 1.01031 16.01L15.0003 30C15.0003 30 17.1432 28.5714 17.1432 25C17.0323 23.1047 16.2761 21.3045 15.0003 19.8986Z" fill="#2684FF"/>
<path d="M10.8668 14.0479L10.9604 14.1414L15.0004 10.1014V0L7.42822 7.57143C7.99758 9.99033 9.18202 12.2212 10.8668 14.0479Z" fill="#1D78F2"/>
<path d="M11.9003 13.0607L11.9718 13.1321L15.0018 10.1021V0L8.66748 6.33286C9.06466 8.84316 10.1886 11.1821 11.9003 13.0607Z" fill="#126AE5"/>
<path d="M15.0002 10.1014V0L10.0002 5C10.1097 7.65372 11.1667 10.1803 12.9795 12.1214L15.0002 10.1014Z" fill="#0B60DA"/>
<path d="M11.429 5C11.429 8.39 13.8625 10.9793 13.9897 11.1114L15.0004 10.1014V0L11.5561 3.44429C11.4707 3.95844 11.4281 4.4788 11.429 5Z" fill="#0154CE"/>
<path d="M15.0003 10.1014L19.8981 15L15.0003 19.8986V30L28.9896 16.01C29.2574 15.7421 29.4078 15.3788 29.4078 15C29.4078 14.6212 29.2574 14.2579 28.9896 13.99L15.0003 0C15.0003 0 12.8574 1.42857 12.8574 5C12.9683 6.89527 13.7245 8.69551 15.0003 10.1014Z" fill="#2482FD"/>
<path d="M19.1331 15.9521L19.0395 15.8585L15.0002 19.8985V30L22.5717 22.4285C22.0023 20.0096 20.8179 17.7788 19.1331 15.9521Z" fill="#1D78F2"/>
<path d="M18.0995 16.9393L18.0281 16.8679L14.9988 19.8979V30.0001L21.3316 23.6672C20.9344 21.1571 19.8108 18.8182 18.0995 16.9393Z" fill="#126AE5"/>
<path d="M15.0002 19.8985V30L20.0002 25C19.8906 22.3461 18.8334 19.8195 17.0202 17.8785L15.0002 19.8985Z" fill="#0B60DA"/>
<path d="M18.5717 25C18.5717 21.61 16.1381 19.0207 16.0102 18.8885L15.0002 19.8985V30L18.4445 26.5557C18.5296 26.0415 18.5721 25.5212 18.5717 25Z" fill="#0154CE"/>
<path d="M15.0002 19.8986L10.1016 15H2.14307V17.1429L15.0002 30C15.0002 30 17.1431 28.5714 17.1431 25C17.0322 23.1047 16.276 21.3045 15.0002 19.8986Z" fill="#2684FF"/>
</g>
<defs>
<clipPath id="clip0_675_2259">
<rect width="30" height="30" fill="white"/>
</clipPath>
</defs>
</svg>
