<svg width="15" height="15" viewBox="0 0 15 15" fill="none" xmlns="http://www.w3.org/2000/svg">
<path d="M3.49513 1.99512C3.39566 1.99514 3.29846 2.02483 3.21596 2.08039C3.13345 2.13595 3.06939 2.21485 3.03196 2.307C2.99453 2.39916 2.98544 2.50038 3.00584 2.59773C3.02624 2.69509 3.07522 2.78414 3.1465 2.85352L7.79298 7.5L3.1465 12.1465C3.09851 12.1926 3.0602 12.2477 3.03381 12.3088C3.00741 12.3699 2.99347 12.4356 2.99279 12.5021C2.99212 12.5686 3.00472 12.6346 3.02986 12.6962C3.05501 12.7578 3.09219 12.8137 3.13923 12.8608C3.18627 12.9078 3.24222 12.945 3.30381 12.9701C3.3654 12.9953 3.43138 13.0079 3.4979 13.0072C3.56442 13.0065 3.63014 12.9926 3.69121 12.9662C3.75227 12.9398 3.80745 12.9015 3.85353 12.8535L8.85353 7.85352C8.94726 7.75974 8.99992 7.63259 8.99992 7.5C8.99992 7.36741 8.94726 7.24026 8.85353 7.14648L3.85353 2.14648C3.80693 2.09859 3.75121 2.06051 3.68965 2.03452C3.6281 2.00852 3.56195 1.99512 3.49513 1.99512ZM6.99513 1.99512C6.89566 1.99514 6.79846 2.02483 6.71596 2.08039C6.63345 2.13595 6.56939 2.21485 6.53196 2.307C6.49454 2.39916 6.48544 2.50038 6.50584 2.59773C6.52624 2.69509 6.57522 2.78414 6.6465 2.85352L11.293 7.5L6.6465 12.1465C6.59851 12.1926 6.5602 12.2477 6.5338 12.3088C6.50741 12.3699 6.49347 12.4356 6.49279 12.5021C6.49211 12.5686 6.50472 12.6346 6.52986 12.6962C6.55501 12.7578 6.59219 12.8137 6.63923 12.8608C6.68627 12.9078 6.74222 12.945 6.80381 12.9701C6.8654 12.9953 6.93138 13.0079 6.9979 13.0072C7.06442 13.0065 7.13014 12.9926 7.19121 12.9662C7.25227 12.9398 7.30745 12.9015 7.35353 12.8535L12.3535 7.85352C12.4473 7.75974 12.4999 7.63259 12.4999 7.5C12.4999 7.36741 12.4473 7.24026 12.3535 7.14648L7.35353 2.14648C7.30693 2.09859 7.25121 2.06051 7.18965 2.03452C7.12809 2.00852 7.06195 1.99512 6.99513 1.99512Z" fill="black"/>
</svg>
