<svg width="15" height="15" viewBox="0 0 15 15" fill="none" xmlns="http://www.w3.org/2000/svg">
<path d="M4.99513 1.99512C4.89566 1.99514 4.79846 2.02483 4.71596 2.08039C4.63345 2.13595 4.56939 2.21485 4.53196 2.307C4.49454 2.39916 4.48544 2.50038 4.50584 2.59773C4.52625 2.69509 4.57522 2.78414 4.6465 2.85352L9.29298 7.5L4.6465 12.1465C4.59851 12.1926 4.5602 12.2477 4.53381 12.3088C4.50741 12.3699 4.49347 12.4356 4.49279 12.5021C4.49212 12.5686 4.50472 12.6346 4.52986 12.6962C4.55501 12.7578 4.59219 12.8137 4.63923 12.8608C4.68627 12.9078 4.74222 12.945 4.80381 12.9701C4.8654 12.9953 4.93139 13.0079 4.99791 13.0072C5.06443 13.0065 5.13014 12.9926 5.19121 12.9662C5.25227 12.9398 5.30746 12.9015 5.35353 12.8535L10.3535 7.85352C10.4473 7.75974 10.4999 7.63259 10.4999 7.5C10.4999 7.36741 10.4473 7.24026 10.3535 7.14648L5.35353 2.14648C5.30693 2.09859 5.25121 2.06051 5.18965 2.03452C5.1281 2.00852 5.06195 1.99512 4.99513 1.99512Z" fill="black"/>
</svg>
