<svg width="15" height="15" viewBox="0 0 15 15" fill="none" xmlns="http://www.w3.org/2000/svg">
<path d="M9.99023 1.99509C9.86033 1.99896 9.73704 2.05325 9.64648 2.14646L4.64648 7.14646C4.55275 7.24023 4.50009 7.36739 4.50009 7.49997C4.50009 7.63256 4.55275 7.75972 4.64648 7.85349L9.64648 12.8535C9.69255 12.9015 9.74774 12.9398 9.8088 12.9662C9.86986 12.9926 9.93558 13.0065 10.0021 13.0072C10.0686 13.0079 10.1346 12.9953 10.1962 12.9701C10.2578 12.945 10.3137 12.9078 10.3608 12.8608C10.4078 12.8137 10.445 12.7578 10.4701 12.6962C10.4953 12.6346 10.5079 12.5686 10.5072 12.5021C10.5065 12.4356 10.4926 12.3698 10.4662 12.3088C10.4398 12.2477 10.4015 12.1925 10.3535 12.1465L5.70703 7.49997L10.3535 2.85349C10.4258 2.78326 10.4751 2.69284 10.4951 2.59408C10.5151 2.49532 10.5047 2.39283 10.4655 2.30003C10.4262 2.20724 10.3598 2.12847 10.275 2.07406C10.1902 2.01965 10.0909 1.99212 9.99023 1.99509Z" fill="black"/>
</svg>
