<svg width="30" height="30" viewBox="0 0 30 30" fill="none" xmlns="http://www.w3.org/2000/svg">
<path d="M15 3C7.82 3 2 7.925 2 14C2 17.368 3.79333 20.3785 6.61133 22.3965C6.68328 23.9325 6.44528 26.0534 4.32617 27.0312L4.32227 27.0332C4.22759 27.0692 4.14608 27.1331 4.08853 27.2165C4.03098 27.2998 4.00011 27.3987 4 27.5C4 27.6326 4.05268 27.7598 4.14645 27.8536C4.24021 27.9473 4.36739 28 4.5 28C4.51434 28 4.52868 27.9993 4.54297 27.998C6.97699 27.9824 9.04327 26.667 10.4688 25.2773C10.9207 24.8363 11.5509 24.6193 12.1719 24.7363C13.0819 24.9093 14.028 25 15 25C22.18 25 28 20.075 28 14C28 7.925 22.18 3 15 3ZM11 10H12C13.105 10 14 10.895 14 12V13C14 17.488 11.7083 18.7635 11.4473 18.8945C11.3043 18.9655 11.152 19 11.002 19C10.635 19 10.2815 18.7983 10.1055 18.4473C9.85847 17.9533 10.0587 17.3525 10.5527 17.1055C10.5797 17.0895 11.3813 16.608 11.7793 15H11C9.895 15 9 14.105 9 13V12C9 10.895 9.895 10 11 10ZM18 10H19C20.105 10 21 10.895 21 12V13C21 17.488 18.7083 18.7635 18.4473 18.8945C18.3043 18.9655 18.152 19 18.002 19C17.635 19 17.2815 18.7983 17.1055 18.4473C16.8585 17.9533 17.0587 17.3525 17.5527 17.1055C17.5797 17.0895 18.3813 16.608 18.7793 15H18C16.895 15 16 14.105 16 13V12C16 10.895 16.895 10 18 10Z" fill="#2781B8"/>
</svg>
