<svg width="140" height="51" viewBox="0 0 140 51" fill="none" xmlns="http://www.w3.org/2000/svg">
<g clip-path="url(#clip0_502_1207)">
<path d="M53.3846 18.9173C53.3213 17.3349 52.1186 16.6217 50.6417 16.6217C49.5024 16.6217 48.1605 17.0732 48.1605 18.432C48.1605 19.5714 49.4602 19.9765 50.3337 20.2001L52.0427 20.5841C53.5027 20.8078 55.0261 21.6602 55.0261 23.4915C55.0261 25.766 52.7727 26.6395 50.8063 26.6395C48.3672 26.6395 46.7004 25.5002 46.4979 22.943H47.7638C47.8651 24.6689 49.1437 25.5635 50.8485 25.5635C52.0469 25.5635 53.7137 25.036 53.7137 23.5717C53.7137 22.3522 52.5786 21.9471 51.4181 21.6602L49.7724 21.2972C48.1056 20.8499 46.8481 20.2803 46.8481 18.4911C46.8481 16.3601 48.958 15.5372 50.7894 15.5372C52.8993 15.5372 54.5492 16.6344 54.6294 18.9131L53.3846 18.9173Z" fill="#00446C"/>
<path d="M56.752 19.0481C56.8744 16.5922 58.6003 15.533 61.0013 15.533C62.8496 15.533 64.8582 16.1027 64.8582 18.9088V24.4789C64.8442 24.5818 64.8537 24.6865 64.8862 24.7852C64.9186 24.8838 64.9731 24.9738 65.0455 25.0482C65.1179 25.1226 65.2063 25.1796 65.304 25.2148C65.4017 25.2499 65.5061 25.2624 65.6093 25.2512C65.754 25.2493 65.8971 25.2207 66.0313 25.1668V26.247C65.7541 26.3065 65.4708 26.3334 65.1874 26.3272C63.8877 26.3272 63.6851 25.593 63.6851 24.4958H63.6598C62.7694 25.8588 61.8537 26.631 59.8409 26.631C57.9125 26.631 56.3258 25.6774 56.3258 23.5632C56.3258 20.6094 59.191 20.5166 61.955 20.1874C63.01 20.065 63.6007 19.9216 63.6007 18.7653C63.6007 17.0394 62.3601 16.609 60.8579 16.609C59.2754 16.609 58.0939 17.3433 58.0559 19.0481H56.752ZM63.5796 20.5925H63.5374C63.3771 20.8963 62.8074 21.0145 62.4614 21.0609C60.2882 21.4449 57.5875 21.428 57.5875 23.4788C57.5875 24.7448 58.7227 25.5508 59.9211 25.5508C61.8748 25.5508 63.6007 24.3101 63.5796 22.2593V20.5925Z" fill="#00446C"/>
<path d="M67.4576 11.8281H68.7235V26.3357H67.4576V11.8281Z" fill="#00446C"/>
<path d="M71.0529 19.0481C71.1753 16.5922 72.9012 15.533 75.3022 15.533C77.1505 15.533 79.1591 16.1027 79.1591 18.9088V24.4789C79.1451 24.5818 79.1546 24.6865 79.1871 24.7852C79.2195 24.8838 79.274 24.9738 79.3464 25.0482C79.4188 25.1226 79.5072 25.1796 79.6049 25.2148C79.7026 25.2499 79.807 25.2624 79.9102 25.2512C80.0549 25.2493 80.198 25.2207 80.3322 25.1668V26.247C80.055 26.3065 79.7717 26.3334 79.4883 26.3272C78.1886 26.3272 77.986 25.593 77.986 24.4958H77.9438C77.0534 25.8588 76.1378 26.631 74.146 26.631C72.2176 26.631 70.6309 25.6774 70.6309 23.5632C70.6309 20.6094 73.4962 20.5166 76.2601 20.1874C77.3151 20.065 77.9058 19.9216 77.9058 18.7653C77.9058 17.0394 76.6652 16.609 75.163 16.609C73.5806 16.609 72.399 17.3433 72.361 19.0481H71.0529ZM77.8805 20.5925H77.8383C77.678 20.8963 77.1083 21.0145 76.7623 21.0609C74.5891 21.4449 71.8884 21.428 71.8884 23.4788C71.8884 24.7448 73.0235 25.5508 74.222 25.5508C76.1757 25.5508 77.9016 24.3101 77.8805 22.2593V20.5925Z" fill="#00446C"/>
<path d="M81.7205 15.8495H82.8978V17.6176H82.9569C83.2663 16.9759 83.756 16.4383 84.366 16.0703C84.9759 15.7024 85.6799 15.5201 86.3918 15.5457C87.7717 15.5457 89.0123 16.2167 89.3963 17.6007C89.6891 16.9689 90.1613 16.4372 90.754 16.0718C91.3468 15.7063 92.034 15.5234 92.73 15.5457C95.0255 15.5457 96.2028 16.7441 96.2028 19.2254V26.3357H94.9369V19.2844C94.9369 17.5585 94.2871 16.6217 92.4599 16.6217C90.2445 16.6217 89.6158 18.4531 89.6158 20.4196V26.3526H88.3498V19.2254C88.3709 17.8033 87.7844 16.6217 86.1555 16.6217C83.9444 16.6217 83.0498 18.2886 83.0287 20.4829V26.3357H81.7627L81.7205 15.8495Z" fill="#00446C"/>
<path d="M98.5194 19.0481C98.6418 16.5922 100.368 15.533 102.765 15.533C104.613 15.533 106.626 16.1027 106.626 18.9088V24.4789C106.611 24.582 106.62 24.6871 106.652 24.7861C106.684 24.8851 106.738 24.9754 106.811 25.0501C106.884 25.1247 106.972 25.1816 107.07 25.2165C107.169 25.2514 107.273 25.2632 107.377 25.2512C107.521 25.2494 107.665 25.2208 107.799 25.1668V26.247C107.522 26.307 107.238 26.3339 106.955 26.3272C105.655 26.3272 105.448 25.593 105.448 24.4958H105.41C104.516 25.8588 103.6 26.631 101.591 26.631C99.6588 26.631 98.0764 25.6774 98.0764 23.5632C98.0764 20.6094 100.942 20.5166 103.701 20.1874C104.761 20.065 105.347 19.9216 105.347 18.7653C105.347 17.0394 104.111 16.609 102.604 16.609C101.022 16.609 99.8444 17.3433 99.8022 19.0481H98.5194ZM105.343 20.5925H105.305C105.14 20.8963 104.571 21.0145 104.225 21.0609C102.051 21.4449 99.3507 21.428 99.3507 23.4788C99.3507 24.7448 100.49 25.5508 101.688 25.5508C103.638 25.5508 105.364 24.3101 105.343 22.2593V20.5925Z" fill="#00446C"/>
<path d="M109.162 15.8495H110.428V17.6598H110.499C110.968 16.3939 112.369 15.5499 113.85 15.5499C116.804 15.5499 117.69 17.0944 117.69 19.5925V26.3442H116.424V19.7908C116.424 17.9848 115.833 16.6218 113.761 16.6218C111.689 16.6218 110.512 18.1704 110.474 20.2212V26.3357H109.208L109.162 15.8495Z" fill="#00446C"/>
<path d="M127.484 19.1452C127.142 17.5796 126.184 16.6133 124.53 16.6133C122.074 16.6133 120.855 18.8498 120.855 21.0863C120.855 23.3227 122.074 25.555 124.53 25.555C126.117 25.555 127.417 24.3144 127.581 22.5674H128.847C128.501 25.0993 126.855 26.6311 124.518 26.6311C121.311 26.6311 119.564 24.0992 119.564 21.0863C119.564 18.0733 121.311 15.5372 124.518 15.5372C126.754 15.5372 128.48 16.7357 128.767 19.1367L127.484 19.1452Z" fill="#00446C"/>
<path d="M130.51 19.0481C130.632 16.5922 132.362 15.533 134.759 15.533C136.607 15.533 138.616 16.1027 138.616 18.9088V24.4789C138.602 24.5822 138.611 24.6874 138.644 24.7863C138.677 24.8853 138.732 24.9755 138.804 25.05C138.877 25.1246 138.966 25.1814 139.065 25.2163C139.163 25.2511 139.268 25.2631 139.371 25.2512C139.516 25.2494 139.659 25.2208 139.793 25.1668V26.247C139.516 26.3067 139.233 26.3336 138.949 26.3272C137.65 26.3272 137.447 25.593 137.447 24.4958H137.409C136.514 25.8588 135.599 26.631 133.586 26.631C131.657 26.631 130.075 25.6774 130.075 23.5632C130.075 20.6094 132.936 20.5166 135.7 20.1874C136.759 20.065 137.346 19.9216 137.346 18.7653C137.346 17.0394 136.105 16.609 134.603 16.609C133.02 16.609 131.839 17.3433 131.801 19.0481H130.51ZM137.337 20.5925H137.295C137.135 20.8963 136.565 21.0145 136.219 21.0609C134.046 21.4449 131.345 21.428 131.345 23.4788C131.345 24.7448 132.48 25.5508 133.683 25.5508C135.632 25.5508 137.358 24.3101 137.337 22.2593V20.5925Z" fill="#00446C"/>
<path d="M49.2618 32.159C49.2553 32.0388 49.224 31.9211 49.1698 31.8135C49.1156 31.7059 49.0398 31.6107 48.9471 31.5338C48.8544 31.4569 48.7467 31.4001 48.631 31.3668C48.5152 31.3335 48.3938 31.3245 48.2744 31.3404C47.8229 31.3404 47.3756 31.505 47.3756 32.024C47.3756 32.543 48.017 32.5894 48.6415 32.7329C49.266 32.8764 49.9074 33.1043 49.9074 33.8892C49.9074 34.674 49.0635 35.0791 48.3461 35.0791C47.4515 35.0791 46.6962 34.6571 46.6962 33.6697H47.2025C47.2025 34.3407 47.7596 34.6318 48.363 34.6318C48.844 34.6318 49.3757 34.4799 49.3757 33.906C49.3757 33.3321 48.7385 33.2604 48.1098 33.1211C47.4811 32.9819 46.8439 32.7962 46.8439 32.062C46.8439 31.2518 47.5654 30.8931 48.2955 30.8931C49.1099 30.8931 49.7344 31.2813 49.7682 32.159H49.2618Z" fill="#5F504B"/>
<path d="M53.0639 30.8931C54.3298 30.8931 54.9796 31.9016 54.9796 33.003C54.9796 34.1044 54.334 35.1129 53.0639 35.1129C51.7937 35.1129 51.1523 34.1044 51.1523 33.003C51.1523 31.9016 51.7937 30.8931 53.0639 30.8931ZM53.0639 34.6318C54.0386 34.6318 54.448 33.7879 54.448 32.9861C54.448 32.1843 54.026 31.3404 53.0639 31.3404C52.1017 31.3404 51.684 32.1843 51.684 32.9861C51.684 33.7879 52.0933 34.6318 53.0639 34.6318Z" fill="#5F504B"/>
<path d="M56.4271 30.9901H56.9588V34.5348H59.0687V34.9821H56.4229L56.4271 30.9901Z" fill="#5F504B"/>
<path d="M63.5247 33.5389C63.5247 34.5474 62.9466 35.0791 61.9508 35.0791C60.9549 35.0791 60.3135 34.6023 60.3135 33.5389V31.007H60.8452V33.5389C60.8296 33.6873 60.8476 33.8374 60.8979 33.9779C60.9482 34.1184 61.0294 34.2459 61.1355 34.3508C61.2417 34.4558 61.37 34.5355 61.5111 34.5841C61.6522 34.6328 61.8025 34.649 61.9508 34.6318C62.0953 34.6445 62.2408 34.6246 62.3765 34.5734C62.5123 34.5222 62.6347 34.4411 62.7348 34.3361C62.835 34.2311 62.9102 34.1049 62.9549 33.9669C62.9995 33.8289 63.0126 33.6826 62.993 33.5389V31.007H63.5247V33.5389Z" fill="#5F504B"/>
<path d="M66.0777 31.4374H64.7485V30.9901H67.9429V31.4374H66.6136V34.9821H66.0819L66.0777 31.4374Z" fill="#5F504B"/>
<path d="M69.2046 30.9901H69.7363V34.9821H69.2046V30.9901Z" fill="#5F504B"/>
<path d="M73.1206 30.8931C74.3865 30.8931 75.0363 31.9016 75.0363 33.003C75.0363 34.1044 74.3907 35.1129 73.1206 35.1129C71.8504 35.1129 71.2048 34.1044 71.2048 33.003C71.2048 31.9016 71.8504 30.8931 73.1206 30.8931ZM73.1206 34.6318C74.0953 34.6318 74.5047 33.7879 74.5047 32.9861C74.5047 32.1843 74.0827 31.3404 73.1206 31.3404C72.1584 31.3404 71.7365 32.1843 71.7365 32.9861C71.7365 33.7879 72.1458 34.6318 73.1206 34.6318Z" fill="#5F504B"/>
<path d="M76.4753 30.9901H77.0408L79.1507 34.231V30.9901H79.6528V34.9821H79.0747L76.9648 31.7793V34.9821H76.4626L76.4753 30.9901Z" fill="#5F504B"/>
<path d="M83.6278 32.159C83.6219 32.0385 83.591 31.9206 83.537 31.8127C83.483 31.7048 83.4072 31.6093 83.3143 31.5323C83.2215 31.4553 83.1136 31.3984 82.9975 31.3654C82.8815 31.3324 82.7599 31.3239 82.6403 31.3404C82.193 31.3404 81.7415 31.505 81.7415 32.024C81.7415 32.543 82.3829 32.5894 83.0075 32.7329C83.632 32.8764 84.2734 33.1043 84.2734 33.8892C84.2734 34.674 83.4294 35.0791 82.7121 35.0791C81.8175 35.0791 81.0621 34.6571 81.0621 33.6697H81.5685C81.5685 34.3407 82.1255 34.6318 82.729 34.6318C83.21 34.6318 83.7417 34.4799 83.7417 33.906C83.7417 33.3321 83.1045 33.2604 82.4758 33.1211C81.847 32.9819 81.2098 32.7962 81.2098 32.062C81.2098 31.2518 81.9314 30.8931 82.6614 30.8931C83.4759 30.8931 84.1004 31.2813 84.1341 32.159H83.6278Z" fill="#5F504B"/>
<path d="M88.1346 30.9901H88.6663V34.9821H88.1346V30.9901Z" fill="#5F504B"/>
<path d="M90.3373 30.9901H90.9027L93.0126 34.231V30.9901H93.5148V34.9821H92.9324L90.8437 31.7793V34.9821H90.3373V30.9901Z" fill="#5F504B"/>
<path d="M96.0888 31.4374H94.7554V30.9901H97.954V31.4374H96.6205V34.9821H96.0888V31.4374Z" fill="#5F504B"/>
<path d="M99.1904 30.9901H101.95V31.4374H99.7221V32.7034H101.798V33.1507H99.7221V34.5306H101.967V34.9778H99.1904V30.9901Z" fill="#5F504B"/>
<path d="M103.41 30.9901H105.288C106.039 30.9901 106.503 31.4121 106.503 32.0367C106.524 32.2603 106.466 32.4843 106.339 32.6694C106.212 32.8545 106.023 32.989 105.807 33.0494C106.275 33.1422 106.368 33.4714 106.406 33.8723C106.38 34.2543 106.462 34.6361 106.643 34.9736H106.052C105.9 34.8133 105.984 34.3829 105.904 33.9904C105.824 33.598 105.752 33.2688 105.237 33.2688H103.942V34.9568H103.41V30.9901ZM105.047 32.83C105.545 32.83 105.972 32.6992 105.972 32.1211C105.98 32.027 105.967 31.9323 105.934 31.8438C105.901 31.7554 105.848 31.6754 105.78 31.6099C105.712 31.5444 105.631 31.4949 105.541 31.465C105.452 31.4352 105.356 31.4257 105.263 31.4374H103.942V32.83H105.047Z" fill="#5F504B"/>
<path d="M108.035 30.9901H108.6L110.71 34.231V30.9901H111.213V34.9821H110.63L108.546 31.7793V34.9821H108.043L108.035 30.9901Z" fill="#5F504B"/>
<path d="M113.964 30.9901H114.55L116.112 34.9821H115.525L115.103 33.7837H113.415L112.968 34.9821H112.419L113.964 30.9901ZM113.567 33.3321H114.918L114.255 31.4712L113.567 33.3321Z" fill="#5F504B"/>
<path d="M117.694 31.4374H116.361V30.9901H119.555V31.4374H118.226V34.9821H117.694V31.4374Z" fill="#5F504B"/>
<path d="M120.817 30.9901H121.349V34.9821H120.817V30.9901Z" fill="#5F504B"/>
<path d="M124.733 30.8931C125.999 30.8931 126.649 31.9016 126.649 33.003C126.649 34.1044 126.003 35.1129 124.733 35.1129C123.463 35.1129 122.821 34.1044 122.821 33.003C122.821 31.9016 123.463 30.8931 124.733 30.8931ZM124.733 34.6318C125.708 34.6318 126.117 33.7879 126.117 32.9861C126.117 32.1843 125.695 31.3404 124.733 31.3404C123.771 31.3404 123.353 32.1843 123.353 32.9861C123.353 33.7879 123.762 34.6318 124.733 34.6318Z" fill="#5F504B"/>
<path d="M128.088 30.9901H128.645L130.754 34.231V30.9901H131.257V34.9821H130.674L128.564 31.7793V34.9821H128.058L128.088 30.9901Z" fill="#5F504B"/>
<path d="M134.016 30.9901H134.603L136.164 34.9821H135.578L135.156 33.7837H133.468L133.02 34.9821H132.442L134.016 30.9901ZM133.62 33.3321H134.974L134.307 31.4712L133.62 33.3321Z" fill="#5F504B"/>
<path d="M137.354 30.9901H137.886V34.5348H139.996V34.9821H137.346L137.354 30.9901Z" fill="#5F504B"/>
<path d="M2.05078 25.4031C2.05099 21.4599 3.31487 17.6206 5.65701 14.4484C7.99914 11.2762 11.2962 8.93805 15.0646 7.77703C15.4199 6.94051 15.833 6.12976 16.301 5.35065C11.5867 6.3348 7.36984 8.94864 4.39126 12.733C1.41267 16.5174 -0.137179 21.2304 0.0139384 26.044C0.165056 30.8576 2.00748 35.464 5.21758 39.0541C8.42768 42.6443 12.8001 44.9884 17.5669 45.6749C17.9632 45.0583 18.3143 44.4138 18.6177 43.7465C14.0752 43.2826 9.86646 41.1499 6.80603 37.7613C3.7456 34.3727 2.05118 29.9691 2.05078 25.4031Z" fill="#5F504B"/>
<path d="M40.9657 25.4031C40.9648 20.5508 39.2412 15.8564 36.1021 12.1562C32.963 8.45606 28.6122 5.99049 23.8249 5.19876C23.3911 5.80179 23.0032 6.43654 22.6645 7.09767C26.8341 7.59433 30.7093 9.4995 33.6489 12.498C36.5885 15.4965 38.4165 19.4087 38.8304 23.5874C39.2442 27.766 38.2193 31.9608 35.925 35.4777C33.6307 38.9946 30.2045 41.623 26.2133 42.9279C25.8959 43.7624 25.5223 44.5745 25.0951 45.3585C29.6062 44.3152 33.6309 41.7744 36.513 38.1506C39.3951 34.5267 40.9646 30.0334 40.9657 25.4031Z" fill="#00446C"/>
<path d="M3.90332 25.4031C3.90401 29.5916 5.49 33.6247 8.34254 36.6917C11.1951 39.7587 15.1028 41.6324 19.2802 41.9362C19.4502 41.4013 19.591 40.8576 19.7022 40.3074C16.4168 40.1319 13.2815 38.8754 10.7841 36.7334C8.28676 34.5915 6.56736 31.6842 5.89344 28.4638C5.21952 25.2434 5.62888 21.8906 7.05782 18.927C8.48675 15.9634 10.8551 13.5552 13.7945 12.077C13.9211 11.3906 14.0815 10.7112 14.2756 10.0388C11.2133 11.2759 8.59015 13.3991 6.74222 16.1364C4.89429 18.8737 3.90577 22.1004 3.90332 25.4031Z" fill="#5F504B"/>
<path d="M35.3872 25.4031C35.388 28.1448 34.633 30.8337 33.2052 33.1743C31.7773 35.5148 29.7319 37.4164 27.2936 38.6701C27.1923 39.3538 27.0573 40.0247 26.8927 40.6914C31.1674 38.8811 37.0751 33.6739 37.0751 25.4031C37.0737 21.2476 35.5115 17.2442 32.698 14.186C29.8844 11.1279 26.0248 9.23808 21.8838 8.89108C21.6949 9.42195 21.5358 9.96292 21.407 10.5115C25.1939 10.7508 28.7474 12.4238 31.3445 15.1903C33.9416 17.9567 35.3872 21.6087 35.3872 25.4031Z" fill="#00446C"/>
<path d="M25.0655 -4.57764e-05C24.6224 0.244702 24.1836 0.50212 23.7574 0.789066C15.6849 6.20306 13.7776 17.4952 19.4912 26.0276C24.9094 34.1085 23.4831 44.6622 16.4571 50.3589C16.9016 50.117 17.3363 49.8554 17.7611 49.5741C25.8377 44.1559 27.7409 32.8637 22.0273 24.3355C16.6091 16.2546 18.0353 5.69667 25.0655 -4.57764e-05Z" fill="#00446C"/>
</g>
<defs>
<clipPath id="clip0_502_1207">
<rect width="140" height="50.3548" fill="white"/>
</clipPath>
</defs>
</svg>
