<svg width="15" height="15" viewBox="0 0 15 15" fill="none" xmlns="http://www.w3.org/2000/svg">
<path d="M7.5 2.5C3.04085 2.5 0.160494 7.10559 0.108398 7.18945C0.0382767 7.27778 7.58113e-05 7.38722 0 7.5C8.87016e-05 7.59675 0.028245 7.6914 0.0810547 7.77246C0.0817023 7.77344 0.0823533 7.77442 0.0830078 7.77539C0.0916046 7.79313 2.50942 12.5 7.5 12.5C12.4694 12.5 14.8837 7.83937 14.9131 7.78223C14.9151 7.77899 14.917 7.77574 14.9189 7.77246C14.9718 7.6914 14.9999 7.59675 15 7.5C15 7.38767 14.9621 7.27862 14.8926 7.19043C14.8923 7.1901 14.8919 7.18978 14.8916 7.18945C14.8395 7.10559 11.9591 2.5 7.5 2.5ZM7.5 4C9.433 4 11 5.567 11 7.5C11 9.433 9.433 11 7.5 11C5.567 11 4 9.433 4 7.5C4 5.567 5.567 4 7.5 4ZM7.5 6C7.10218 6 6.72064 6.15804 6.43934 6.43934C6.15804 6.72064 6 7.10218 6 7.5C6 7.89782 6.15804 8.27936 6.43934 8.56066C6.72064 8.84196 7.10218 9 7.5 9C7.89782 9 8.27936 8.84196 8.56066 8.56066C8.84196 8.27936 9 7.89782 9 7.5C9 7.10218 8.84196 6.72064 8.56066 6.43934C8.27936 6.15804 7.89782 6 7.5 6Z" fill="#2781B8"/>
</svg>
